<svg width="76" height="59" viewBox="0 0 76 59" fill="none" xmlns="http://www.w3.org/2000/svg">
    <path d="M7.758 43.41V40.31C6.80733 40.2067 5.84633 39.9483 4.875 39.535C3.92433 39.1217 3.09767 38.5947 2.395 37.954L4.007 35.536C4.73033 36.1147 5.464 36.5797 6.208 36.931C6.97267 37.2823 7.76833 37.458 8.595 37.458C9.60767 37.458 10.362 37.2203 10.858 36.745C11.354 36.2697 11.602 35.6187 11.602 34.792C11.602 34.11 11.3953 33.5417 10.982 33.087C10.5893 32.6117 10.0727 32.1983 9.432 31.847C8.79133 31.4957 8.10933 31.1443 7.386 30.793C6.66267 30.421 5.98067 30.0077 5.34 29.553C4.69933 29.0983 4.17233 28.5507 3.759 27.91C3.36633 27.2487 3.17 26.4323 3.17 25.461C3.17 24.0143 3.58333 22.8157 4.41 21.865C5.25733 20.8937 6.37333 20.284 7.758 20.036V16.874H10.238V19.974C11.23 20.098 12.0773 20.3873 12.78 20.842C13.5033 21.276 14.1543 21.7927 14.733 22.392L12.904 24.469C12.3253 23.9317 11.7673 23.5287 11.23 23.26C10.6927 22.9707 10.052 22.826 9.308 22.826C8.48133 22.826 7.82 23.043 7.324 23.477C6.84867 23.8903 6.611 24.5 6.611 25.306C6.611 25.926 6.80733 26.4427 7.2 26.856C7.61333 27.2693 8.14033 27.6413 8.781 27.972C9.42167 28.3027 10.1037 28.6437 10.827 28.995C11.5503 29.3257 12.2323 29.7287 12.873 30.204C13.5137 30.6587 14.0303 31.2373 14.423 31.94C14.8363 32.622 15.043 33.49 15.043 34.544C15.043 36.0113 14.6193 37.2513 13.772 38.264C12.9453 39.2767 11.7673 39.9277 10.238 40.217V43.41H7.758ZM21.2026 32.157H26.3796V27.693C26.3796 27.1143 26.4002 26.4323 26.4416 25.647C26.4829 24.8617 26.5139 24.1797 26.5346 23.601H26.4106C26.1626 24.1177 25.9042 24.624 25.6356 25.12C25.3669 25.616 25.0879 26.1327 24.7986 26.67L21.2026 32.157ZM26.3796 40V34.916H17.6686V32.498L25.4806 20.284H29.7276V32.157H32.2076V34.916H29.7276V40H26.3796ZM37.4991 40.372C36.8584 40.372 36.3108 40.1447 35.8561 39.69C35.4014 39.2353 35.1741 38.6567 35.1741 37.954C35.1741 37.2513 35.4014 36.6727 35.8561 36.218C36.3108 35.7633 36.8584 35.536 37.4991 35.536C38.1604 35.536 38.7081 35.7633 39.1421 36.218C39.5761 36.6727 39.7931 37.2513 39.7931 37.954C39.7931 38.6567 39.5761 39.2353 39.1421 39.69C38.7081 40.1447 38.1604 40.372 37.4991 40.372ZM49.9112 40.372C47.8652 40.372 46.2326 39.4833 45.0132 37.706C43.8146 35.9287 43.2152 33.3763 43.2152 30.049C43.2152 26.7217 43.8146 24.2003 45.0132 22.485C46.2326 20.7697 47.8652 19.912 49.9112 19.912C51.9572 19.912 53.5796 20.7697 54.7782 22.485C55.9976 24.2003 56.6072 26.7217 56.6072 30.049C56.6072 33.3763 55.9976 35.9287 54.7782 37.706C53.5796 39.4833 51.9572 40.372 49.9112 40.372ZM49.9112 37.582C50.5519 37.582 51.1202 37.3443 51.6162 36.869C52.1122 36.373 52.4946 35.5773 52.7632 34.482C53.0526 33.3867 53.1972 31.909 53.1972 30.049C53.1972 28.189 53.0526 26.7217 52.7632 25.647C52.4946 24.5723 52.1122 23.818 51.6162 23.384C51.1202 22.9293 50.5519 22.702 49.9112 22.702C49.2912 22.702 48.7332 22.9293 48.2372 23.384C47.7412 23.818 47.3486 24.5723 47.0592 25.647C46.7699 26.7217 46.6252 28.189 46.6252 30.049C46.6252 31.909 46.7699 33.3867 47.0592 34.482C47.3486 35.5773 47.7412 36.373 48.2372 36.869C48.7332 37.3443 49.2912 37.582 49.9112 37.582ZM62.5188 26.36C62.5188 27.5173 62.7874 28.3957 63.3248 28.995C63.8828 29.5943 64.6578 29.894 65.6498 29.894C66.2284 29.894 66.8278 29.7183 67.4478 29.367C68.0884 28.995 68.6671 28.406 69.1838 27.6C68.9978 25.864 68.5741 24.6033 67.9128 23.818C67.2514 23.0327 66.4351 22.64 65.4638 22.64C64.6578 22.64 63.9654 22.9603 63.3868 23.601C62.8081 24.2417 62.5188 25.1613 62.5188 26.36ZM64.8128 40.372C63.6348 40.372 62.6118 40.155 61.7438 39.721C60.8758 39.287 60.1421 38.76 59.5428 38.14L61.4648 35.97C61.8368 36.404 62.3018 36.7657 62.8598 37.055C63.4384 37.3237 64.0274 37.458 64.6268 37.458C65.4534 37.458 66.2078 37.2307 66.8898 36.776C67.5718 36.3213 68.1298 35.567 68.5638 34.513C68.9978 33.4383 69.2354 31.9917 69.2768 30.173C68.6981 30.8757 68.0161 31.4337 67.2308 31.847C66.4454 32.2603 65.6911 32.467 64.9678 32.467C63.2731 32.467 61.8884 31.971 60.8138 30.979C59.7598 29.9663 59.2328 28.4267 59.2328 26.36C59.2328 25.0373 59.5118 23.9007 60.0698 22.95C60.6484 21.9787 61.4028 21.2347 62.3328 20.718C63.2834 20.1807 64.3168 19.912 65.4328 19.912C66.7141 19.912 67.8921 20.253 68.9668 20.935C70.0621 21.617 70.9301 22.671 71.5708 24.097C72.2321 25.5023 72.5628 27.3107 72.5628 29.522C72.5628 32.064 72.2011 34.141 71.4778 35.753C70.7544 37.3443 69.8038 38.512 68.6258 39.256C67.4478 40 66.1768 40.372 64.8128 40.372Z" fill="white"/>
    <path d="M2.07112 41.5821L74.0036 22.0006" stroke="#F354B4" stroke-width="3.35685" stroke-linecap="round"/>
</svg>
